<?xml version="1.0" encoding="UTF-8" standalone="no" ?>
<!DOCTYPE svg PUBLIC "-//W3C//DTD SVG 1.1//EN" "http://www.w3.org/Graphics/SVG/1.1/DTD/svg11.dtd">
<svg xmlns="http://www.w3.org/2000/svg" xmlns:xlink="http://www.w3.org/1999/xlink" version="1.1" width="350" height="350" viewBox="0 0 350 350" xml:space="preserve">
<desc>Created with Fabric.js 1.7.22</desc>
<defs>
</defs>
<g style="stroke: none; stroke-width: 1; stroke-dasharray: none; stroke-linecap: butt; stroke-linejoin: miter; stroke-miterlimit: 10; fill: rgb(61,207,211); fill-rule: nonzero; opacity: 1;" transform="translate(-1.9444444444444287 -1.9444444444444287) scale(3.89 3.89)" >
	<rect id="Layer_1" x="0" y="0" rx="0" ry="0" width="90" height="90" style="stroke: none; stroke-width: 1; stroke-dasharray: none; stroke-linecap: butt; stroke-linejoin: miter; stroke-miterlimit: 10; fill: rgb(61,207,211); fill-rule: nonzero; opacity: 1;" transform=" matrix(1 0 0 1 0 0) "/>
</g>
<g id="icon" style="stroke: none; stroke-width: 1; stroke-dasharray: none; stroke-linecap: butt; stroke-linejoin: miter; stroke-miterlimit: 10; fill: none; fill-rule: nonzero; opacity: 1;" transform="translate(43.55555555555557 43.55555555555557) scale(2.89 2.89)" >
	<path d="M 45 89.999 c -0.776 0 -1.551 -0.123 -2.29 -0.368 c -19.604 -6.512 -32.272 -22.013 -32.272 -39.492 V 17.612 c 0 -2.276 1.619 -4.223 3.85 -4.628 h 0 c 10.74 -1.954 20.111 -5.993 27.853 -12.005 c 1.684 -1.307 4.035 -1.307 5.719 0 c 7.742 6.013 17.113 10.052 27.853 12.005 c 2.23 0.405 3.85 2.352 3.85 4.628 v 32.527 c 0 17.479 -12.667 32.981 -32.271 39.492 C 46.552 89.876 45.776 89.999 45 89.999 z M 45 1.999 c -0.576 0 -1.152 0.187 -1.633 0.56 C 35.369 8.77 25.706 12.939 14.646 14.952 c 0 0 0 0 0 0 c -1.279 0.232 -2.208 1.351 -2.208 2.66 v 32.527 c 0 16.603 12.13 31.359 30.903 37.594 c 1.069 0.355 2.248 0.355 3.318 0 c 18.772 -6.234 30.902 -20.991 30.902 -37.594 V 17.612 c 0 -1.309 -0.929 -2.428 -2.207 -2.66 C 64.295 12.939 54.632 8.77 46.633 2.559 C 46.152 2.185 45.576 1.999 45 1.999 z M 14.467 13.968 h 0.01 H 14.467 z" style="stroke: none; stroke-width: 1; stroke-dasharray: none; stroke-linecap: butt; stroke-linejoin: miter; stroke-miterlimit: 10; fill: rgb(0,0,0); fill-rule: nonzero; opacity: 1;" transform=" matrix(1 0 0 1 0 0) " stroke-linecap="round" />
	<path d="M 43.131 54.997 c -0.762 0 -1.524 -0.29 -2.104 -0.87 l -7.625 -7.624 c -1.16 -1.16 -1.16 -3.048 0 -4.209 l 2.25 -2.25 c 1.16 -1.16 3.047 -1.16 4.208 0 l 3.271 3.271 l 7.009 -7.009 c 1.123 -1.123 3.084 -1.125 4.209 0 l 2.249 2.25 c 1.16 1.16 1.16 3.048 0 4.208 L 45.235 54.127 C 44.655 54.707 43.893 54.997 43.131 54.997 z M 37.756 41.173 c -0.25 0 -0.5 0.095 -0.69 0.285 l -2.25 2.25 c -0.38 0.381 -0.38 1 0 1.38 l 7.625 7.625 c 0.381 0.381 1 0.381 1.38 0 L 55.184 41.35 c 0.185 -0.184 0.286 -0.429 0.286 -0.69 s -0.102 -0.506 -0.286 -0.69 l 0 0 l -2.249 -2.25 c -0.369 -0.369 -1.012 -0.369 -1.381 0 l -7.716 7.716 c -0.375 0.375 -1.039 0.375 -1.414 0 l -3.978 -3.978 C 38.256 41.269 38.006 41.173 37.756 41.173 z" style="stroke: none; stroke-width: 1; stroke-dasharray: none; stroke-linecap: butt; stroke-linejoin: miter; stroke-miterlimit: 10; fill: rgb(0,0,0); fill-rule: nonzero; opacity: 1;" transform=" matrix(1 0 0 1 0 0) " stroke-linecap="round" />
	<path d="M 45 65.5 c -11.855 0 -21.5 -9.645 -21.5 -21.5 c 0 -11.855 9.645 -21.5 21.5 -21.5 c 11.855 0 21.5 9.645 21.5 21.5 C 66.5 55.855 56.855 65.5 45 65.5 z M 45 24.5 c -10.752 0 -19.5 8.748 -19.5 19.5 c 0 10.752 8.748 19.5 19.5 19.5 c 10.752 0 19.5 -8.748 19.5 -19.5 C 64.5 33.248 55.752 24.5 45 24.5 z" style="stroke: none; stroke-width: 1; stroke-dasharray: none; stroke-linecap: butt; stroke-linejoin: miter; stroke-miterlimit: 10; fill: rgb(0,0,0); fill-rule: nonzero; opacity: 1;" transform=" matrix(1 0 0 1 0 0) " stroke-linecap="round" />
</g>
</svg>